<svg width="31" height="51" viewBox="0 0 31 51" fill="none" xmlns="http://www.w3.org/2000/svg">
<path d="M18.7072 0C17.6259 1.777 6.7771 20.4 2.05552 28.4676C-0.467459 32.7324 -0.575587 37.7436 1.22654 41.9373C1.22654 41.9373 1.22654 41.9373 17.8782 13.4697C20.3652 9.20488 20.5093 4.22927 18.7072 0Z" fill="#E3BDB1"/>
<path d="M29.4117 30.0669L17.1572 51C21.7707 50.4314 26.0958 47.8369 28.5827 43.5366C31.0697 39.2718 31.2138 34.2962 29.4117 30.0669Z" fill="#E3BDB1"/>
<path d="M22.96 22.9233C22.0589 22.3902 21.1218 21.9993 20.1487 21.6794L5.1189 47.3394C5.87579 47.9791 6.70477 48.5833 7.60584 49.1164C8.5069 49.6495 9.44401 50.0404 10.4172 50.3603L25.4469 24.7003C24.69 24.0251 23.861 23.4564 22.96 22.9233Z" fill="#E3BDB1"/>
</svg>
