<svg width="21" height="12" viewBox="0 0 21 12" fill="none" xmlns="http://www.w3.org/2000/svg">
<path d="M13.7812 1.66674C13.7812 2.89867 13.2624 4.0764 12.3578 4.89833C12.2226 5.02105 12.0153 5.00933 11.8945 4.87245C11.7734 4.73508 11.7852 4.52447 11.9201 4.40175C12.686 3.70612 13.125 2.70938 13.125 1.66674C13.125 1.62182 13.124 1.57641 13.1227 1.53246C13.1075 1.35034 13.2581 1.19409 13.4393 1.18806C13.6208 1.18139 13.7724 1.32576 13.7783 1.50968C13.7803 1.56176 13.7812 1.61401 13.7812 1.66674Z" fill="#6E6E6E"/>
<path d="M16.4062 1.66667C16.4062 4.4523 14.7831 6.97198 12.2706 8.08526C12.1046 8.15899 11.9109 8.08168 11.8388 7.91257C11.7662 7.7433 11.8423 7.54701 12.0088 7.47393C14.281 6.46661 15.75 4.18733 15.75 1.66667C15.75 1.25896 15.7119 0.851408 15.6364 0.455088C15.6003 0.275401 15.7184 0.0996206 15.8963 0.0646275C16.0741 0.0296343 16.2462 0.147635 16.2806 0.328624C16.3639 0.76661 16.4062 1.21631 16.4062 1.66667Z" fill="#6E6E6E"/>
<path d="M19.0314 1.66669C19.0314 5.56202 16.7509 9.05826 13.2213 10.574C13.0543 10.6457 12.8616 10.5667 12.7911 10.397C12.7206 10.228 12.7986 10.0317 12.9654 9.95995C16.2518 8.54866 18.3751 5.2933 18.3751 1.66669C18.3751 1.43834 18.367 1.20934 18.3502 0.985709C18.3397 0.800977 18.4719 0.64196 18.6528 0.628288C18.8335 0.614291 18.991 0.751985 19.0045 0.935741C19.0226 1.17565 19.0314 1.42207 19.0314 1.66669Z" fill="#6E6E6E"/>
<path d="M20.9944 5.63872C20.9944 5.67501 20.9884 5.71245 20.9756 5.74874C20.1157 8.24336 18.4479 10.4326 16.2792 11.9126C16.1289 12.0153 15.9249 11.9746 15.8238 11.822C15.7218 11.669 15.7628 11.4624 15.9131 11.3594C17.9648 9.95901 19.5431 7.88805 20.3565 5.52869C20.4163 5.35503 20.6036 5.26339 20.7742 5.32443C20.9101 5.37212 20.9944 5.50102 20.9944 5.63872Z" fill="#6E6E6E"/>
<path d="M3.28115 0.666708C3.28115 2.46667 2.21474 4.05195 0.564986 4.7051C0.395957 4.77167 0.205619 4.68703 0.13993 4.51565C0.0740805 4.34475 0.157714 4.15107 0.326423 4.08401C1.72288 3.53144 2.6249 2.18965 2.6249 0.666708C2.63676 0.484092 2.76365 0.314333 2.94485 0.310102C3.1259 0.305707 3.2765 0.435752 3.28083 0.61967L3.28115 0.666708Z" fill="#6E6E6E"/>
<path d="M5.90627 0.666706C5.90627 3.95168 3.61469 6.83139 0.457124 7.51368C0.279923 7.5516 0.105607 7.43702 0.0676355 7.25668C0.0304651 7.0783 0.143098 6.90007 0.320619 6.86101C3.17697 6.24399 5.25002 3.63902 5.25002 0.666706L5.24906 0.560424C5.24746 0.372111 5.39053 0.224325 5.57126 0.22107C5.75279 0.217652 5.90195 0.364786 5.90531 0.548379L5.90627 0.666706Z" fill="#6E6E6E"/>
<path d="M8.45626 1.86328C8.45626 1.87728 8.4553 1.8916 8.4537 1.90592C7.95559 5.86863 5.04908 9.15068 1.22085 10.0722C1.04461 10.115 0.867733 10.004 0.826076 9.82499C0.783458 9.64726 0.893367 9.46627 1.06945 9.42395C4.633 8.56605 7.33907 5.51105 7.8029 1.82129C7.82597 1.63867 7.99035 1.5096 8.17012 1.53304C8.33546 1.55436 8.45626 1.69808 8.45626 1.86328Z" fill="#6E6E6E"/>
<path d="M9.18873 7.30443C9.18873 7.36774 9.1711 7.43203 9.13393 7.48867C7.86213 9.43202 6.08564 10.9644 3.99688 11.919C3.83138 11.9947 3.6372 11.9196 3.56302 11.7517C3.48851 11.5844 3.56205 11.3868 3.72772 11.3111C5.70336 10.4078 7.38436 8.95839 8.58759 7.11969C8.68805 6.96637 8.89184 6.92471 9.04277 7.02676C9.13762 7.0904 9.18873 7.19668 9.18873 7.30443Z" fill="#6E6E6E"/>
<path d="M4.92187 0.33339C4.92187 0.517796 4.77528 0.666722 4.59375 0.666722C1.16782 0.666722 0.65625 4.00801 0.65625 6.00003C0.65625 7.99204 1.16782 11.3333 4.59375 11.3333C4.77528 11.3333 4.92187 11.4823 4.92187 11.6667C4.92187 11.8511 4.77528 12 4.59375 12C1.67443 12 -9.55968e-08 9.813 -2.62267e-07 6.00003C-4.28937e-07 2.18706 1.67443 5.90546e-05 4.59375 5.8927e-05C4.77528 5.89191e-05 4.92187 0.148984 4.92187 0.33339Z" fill="#6E6E6E"/>
<path d="M9.1875 2.33336L9.1875 9.66666C9.1875 9.85107 9.0409 9.99999 8.85938 9.99999C8.67785 9.99999 8.53125 9.85107 8.53125 9.66666L8.53125 2.33336C8.53125 2.14896 8.67785 2.00003 8.85937 2.00003C9.0409 2.00003 9.1875 2.14896 9.1875 2.33336Z" fill="#6E6E6E"/>
<path d="M12.4687 2.33336L12.4687 9.66666C12.4687 9.85107 12.3222 9.99999 12.1406 9.99999C11.9591 9.99999 11.8125 9.85107 11.8125 9.66666L11.8125 2.33336C11.8125 2.14896 11.9591 2.00003 12.1406 2.00003C12.3222 2.00003 12.4687 2.14896 12.4687 2.33336Z" fill="#6E6E6E"/>
<path d="M9.1875 2.33372C9.1875 2.39704 9.1694 2.46133 9.13239 2.51846C9.03161 2.67145 8.82813 2.71312 8.67721 2.61074C7.87901 2.07005 5.5879 0.66674 4.59375 0.66674C4.41222 0.66674 4.26562 0.517815 4.26562 0.333409C4.26562 0.149002 4.41222 7.72412e-05 4.59375 7.72333e-05C5.96601 7.71733e-05 8.7304 1.84577 9.04154 2.05606C9.13639 2.12002 9.1875 2.22614 9.1875 2.33372Z" fill="#6E6E6E"/>
<path d="M9.1875 9.66635C9.1875 9.77394 9.13639 9.88006 9.04154 9.94402C8.7304 10.1543 5.96601 12 4.59375 12C4.41222 12 4.26562 11.8511 4.26562 11.6667C4.26562 11.4823 4.41222 11.3333 4.59375 11.3333C5.58902 11.3333 7.87901 9.93002 8.67721 9.38934C8.82813 9.28696 9.03161 9.3283 9.13239 9.48162C9.1694 9.53875 9.1875 9.60304 9.1875 9.66635Z" fill="#6E6E6E"/>
<path d="M21 6.00003C21 9.813 19.3256 12 16.4062 12C16.2247 12 16.0781 11.8511 16.0781 11.6667C16.0781 11.4823 16.2247 11.3333 16.4062 11.3333C19.8322 11.3333 20.3437 7.99204 20.3437 6.00003C20.3437 4.00801 19.8322 0.666722 16.4062 0.666722C16.2247 0.666722 16.0781 0.517797 16.0781 0.33339C16.0781 0.148984 16.2247 5.91214e-05 16.4062 5.91135e-05C19.3256 5.89859e-05 21 2.18706 21 6.00003Z" fill="#6E6E6E"/>
<path d="M16.7345 11.6667C16.7345 11.8511 16.5879 12 16.4063 12C15.0341 12 12.2697 10.1543 11.9585 9.94402C11.8076 9.8423 11.7672 9.63575 11.8677 9.48162C11.9685 9.32863 12.172 9.28696 12.3229 9.38934C13.1211 9.93002 15.4122 11.3333 16.4063 11.3333C16.5879 11.3333 16.7345 11.4823 16.7345 11.6667Z" fill="#6E6E6E"/>
<path d="M16.7345 0.333324C16.7345 0.51773 16.5879 0.666656 16.4063 0.666656C15.4111 0.666656 13.1211 2.06997 12.3229 2.61066C12.172 2.71303 11.9685 2.67169 11.8677 2.51837C11.7672 2.36473 11.8076 2.15802 11.9585 2.05597C12.2697 1.84569 15.0341 -7.77021e-06 16.4063 -7.8302e-06C16.5879 -7.83813e-06 16.7345 0.148917 16.7345 0.333324Z" fill="#6E6E6E"/>
<path d="M12.4687 2.33334C12.4687 2.51775 12.3222 2.66667 12.1406 2.66667L8.85938 2.66667C8.67785 2.66667 8.53125 2.51775 8.53125 2.33334C8.53125 2.14893 8.67785 2.00001 8.85937 2.00001L12.1406 2.00001C12.3222 2.00001 12.4687 2.14893 12.4687 2.33334Z" fill="#6E6E6E"/>
<path d="M12.4687 9.66666C12.4687 9.85107 12.3222 9.99999 12.1406 9.99999L8.85938 9.99999C8.67785 9.99999 8.53125 9.85107 8.53125 9.66666C8.53125 9.48225 8.67785 9.33333 8.85937 9.33333L12.1406 9.33333C12.3222 9.33333 12.4687 9.48225 12.4687 9.66666Z" fill="#6E6E6E"/>
</svg>
