<svg width="46" height="41" viewBox="0 0 46 41" fill="none" xmlns="http://www.w3.org/2000/svg">
<path d="M45.8191 22.821C44.608 19.468 42.7063 16.4713 40.1668 13.9139C36.8213 10.5449 32.6644 8.27969 28.1418 7.30217C28.9922 6.5354 29.5286 5.4223 29.5286 4.18502C29.5286 1.87761 27.6645 0.000430737 25.3732 0.000430737C24.4921 0.000430737 23.6748 0.278815 23.0018 0.751691C22.3097 0.263738 21.4882 0 20.6258 0C18.3349 0 16.4712 1.8774 16.4712 4.18492C16.4712 5.42531 17.0103 6.54089 17.8642 7.30788C16.555 7.59402 15.2668 7.99 14.0071 8.49583C11.0741 9.67344 8.43806 11.3849 6.17221 13.5825C3.45988 16.2126 1.44331 19.3263 0.178525 22.8365C-0.152989 23.7554 -0.017496 24.7831 0.540839 25.5856C0.983465 26.2217 1.64853 26.6547 2.38909 26.8103C2.0919 28.2272 1.93438 29.6953 1.93438 31.2C1.93438 36.6037 6.29989 41 11.6659 41H34.3373C39.7033 41 44.0688 36.6037 44.0688 31.2C44.0688 29.6952 43.9113 28.227 43.6141 26.8101C44.3533 26.6544 45.0168 26.2223 45.4581 25.5874C46.0188 24.7805 46.1537 23.7463 45.8191 22.821ZM25.3731 1.6157C26.7799 1.6157 27.9244 2.76823 27.9244 4.18492C27.9244 5.6016 26.7798 6.75413 25.3731 6.75413C23.9664 6.75413 22.8218 5.6016 22.8218 4.18492C22.8218 2.76823 23.9664 1.6157 25.3731 1.6157ZM20.6257 1.61517C21.0681 1.61517 21.493 1.72846 21.8688 1.94029C21.4573 2.58946 21.2177 3.35924 21.2177 4.18481C21.2177 5.01027 21.4573 5.78005 21.8687 6.42911C21.4929 6.64094 21.068 6.75413 20.6257 6.75413C19.2193 6.75413 18.0752 5.60139 18.0752 4.18459C18.0752 2.7678 19.2193 1.61517 20.6257 1.61517ZM34.3372 39.3845H11.6658C7.18429 39.3845 3.53837 35.7129 3.53837 31.1999C3.53837 20.3925 12.2695 11.5999 23.0015 11.5999C33.7335 11.5999 42.4646 20.3925 42.4646 31.1999C42.4646 35.7129 38.8186 39.3845 34.3372 39.3845ZM44.1438 24.6608C43.9222 24.9796 43.5934 25.1825 43.2213 25.2406C40.6578 16.4344 32.5641 9.98457 23.0014 9.98457C13.4387 9.98457 5.34492 16.4345 2.78145 25.2408C2.4078 25.1828 2.07736 24.979 1.85439 24.6585C1.59206 24.2814 1.53079 23.8184 1.68617 23.3876C2.86679 20.1109 4.75044 17.2034 7.28481 14.7457C11.504 10.6537 17.2861 8.33052 23.1577 8.37015C29.1527 8.40968 34.7905 10.7841 39.0326 15.056C41.4052 17.4453 43.1813 20.2435 44.3118 23.3734C44.4699 23.8107 44.4086 24.2799 44.1438 24.6608Z" fill="#E3BDB1"/>
</svg>
