<svg width="15" height="20" viewBox="0 0 15 20" fill="none" xmlns="http://www.w3.org/2000/svg">
<path d="M14.9987 18.3922L14.4324 4.33973C14.4192 4.01319 14.151 3.75734 13.8217 3.75734H11.2659V3.73777C11.2659 1.67675 9.57651 0 7.5 0C5.42349 0 3.73414 1.67675 3.73414 3.73777V3.75734H1.17837C0.84906 3.75734 0.580836 4.01315 0.567626 4.33973L0.00128832 18.3922C-0.0158256 18.8166 0.138042 19.2189 0.434461 19.5251C0.730919 19.8314 1.12982 20 1.55767 20H13.4424C13.8703 20 14.2691 19.8314 14.5656 19.5251C14.862 19.2189 15.0158 18.8166 14.9987 18.3922ZM4.32564 3.73777C4.32564 2.00047 5.74965 0.587084 7.5 0.587084C9.25036 0.587084 10.6744 2.00047 10.6744 3.73777V3.75734H4.32564V3.73777ZM14.139 19.1184C13.9552 19.3083 13.7077 19.4129 13.4424 19.4129H1.55767C1.29229 19.4129 1.04488 19.3083 0.861008 19.1184C0.677132 18.9285 0.581704 18.6789 0.592351 18.4157L1.15865 4.36321C1.15908 4.35264 1.16772 4.34442 1.17837 4.34442H3.73414V6.24266C3.73414 6.40478 3.86656 6.5362 4.02989 6.5362C4.19322 6.5362 4.32564 6.40478 4.32564 6.24266V4.34442H10.6744V6.24266C10.6744 6.40478 10.8068 6.5362 10.9701 6.5362C11.1334 6.5362 11.2659 6.40478 11.2659 6.24266V4.34442H13.8217C13.8323 4.34442 13.8409 4.35264 13.8414 4.36321L14.4077 18.4157C14.4183 18.6789 14.3229 18.9284 14.139 19.1184Z" fill="#A0A0A0"/>
</svg>
