<svg width="56" height="56" viewBox="0 0 56 56" fill="none" xmlns="http://www.w3.org/2000/svg">
<path d="M55.5508 38.159L43.5082 33.354C43.8933 32.0321 44.1006 30.6354 44.1006 29.1909C44.1006 20.9719 37.414 14.2853 29.195 14.2853C27.2399 14.2853 25.3718 14.6644 23.6595 15.3518L19.208 4.20938C19.2691 4.15933 19.3281 4.10596 19.3848 4.04938C19.8329 3.60137 20.0797 3.00571 20.0797 2.37214C20.0797 1.73857 19.8329 1.1428 19.3849 0.694788C18.9368 0.246771 18.3413 0 17.7077 0C17.0741 0 16.4784 0.246771 16.0305 0.694788C15.5823 1.1428 15.3356 1.73857 15.3356 2.37214C15.3356 3.00571 15.5823 3.60137 16.0305 4.04938C16.4785 4.4974 17.0741 4.74417 17.7077 4.74417C17.7664 4.74417 17.8243 4.73989 17.8822 4.73561L22.3611 15.9468C19.6191 17.3674 17.3719 19.6148 15.9512 22.3568L4.73568 17.8823C4.73984 17.8245 4.74412 17.7667 4.74412 17.7081C4.74412 17.0745 4.49735 16.4789 4.04934 16.0309C4.04934 16.0309 4.04934 16.0309 4.04922 16.0309C3.60121 15.5829 3.00568 15.3361 2.372 15.3361C1.73844 15.3361 1.14267 15.5829 0.694899 16.0309C0.246769 16.4789 0 17.0745 0 17.7081C0 18.3417 0.246769 18.9374 0.694781 19.3855C1.14291 19.8335 1.73844 20.0803 2.372 20.0803C3.00568 20.0803 3.60133 19.8335 4.04922 19.3855C4.10604 19.3286 4.15941 19.2694 4.20969 19.2081L15.3563 23.6553C14.6688 25.3678 14.2898 27.2358 14.2898 29.1911C14.2898 37.4101 20.9763 44.0966 29.1953 44.0966C30.6379 44.0966 32.0329 43.8899 33.3532 43.5057L38.1591 55.5509C38.2706 55.8301 38.5385 56 38.8218 56C38.9097 56 38.9991 55.9836 39.0859 55.949C39.4518 55.803 39.63 55.3882 39.4841 55.0223L34.7038 43.0413C38.4976 41.527 41.528 38.4974 43.0435 34.7043L55.0223 39.4839C55.109 39.5185 55.1984 39.5349 55.2865 39.5349C55.5697 39.5349 55.8378 39.3649 55.9492 39.0858C56.0949 38.7199 55.9167 38.305 55.5508 38.159ZM16.7621 2.37226C16.7621 2.11967 16.8605 1.88217 17.0391 1.70363C17.2177 1.52509 17.4552 1.42666 17.7078 1.42666C17.9604 1.42666 18.1978 1.52509 18.3764 1.70363C18.555 1.88217 18.6534 2.11967 18.6534 2.37226C18.6534 2.62486 18.555 2.86236 18.3763 3.0409C18.1978 3.21944 17.9604 3.31786 17.7078 3.31786C17.4552 3.31786 17.2177 3.21956 17.0391 3.0409C16.8605 2.86236 16.7621 2.62486 16.7621 2.37226ZM3.04063 18.3769C2.86209 18.5554 2.62471 18.6538 2.372 18.6538C2.11941 18.6538 1.88203 18.5554 1.70337 18.3769C1.52483 18.1983 1.42641 17.9608 1.42641 17.7082C1.42641 17.4556 1.52483 17.2181 1.70349 17.0396C1.88203 16.861 2.11953 16.7626 2.372 16.7626C2.62459 16.7626 2.86209 16.8609 3.04063 17.0396H3.04075C3.21929 17.2181 3.31771 17.4556 3.31771 17.7082C3.31771 17.9608 3.21929 18.1982 3.04063 18.3769ZM36.1244 40.7485L17.6424 22.254C17.9724 21.7066 18.3402 21.1847 18.7421 20.6914L34.6933 36.6427C34.762 36.7783 34.8724 36.8888 35.0079 36.9574L37.6948 39.6443C37.1992 40.0481 36.6747 40.4174 36.1244 40.7485ZM32.7132 42.2036L16.1829 25.6731C16.3793 24.9472 16.6347 24.2454 16.9442 23.5732L34.8049 41.4461C34.1352 41.7538 33.4361 42.008 32.7132 42.2036ZM29.1952 15.7119C29.9877 15.7119 30.7641 15.7812 31.5194 15.9131L23.7502 23.6823L22.4127 22.3448L29.0436 15.7138C29.0941 15.7133 29.1445 15.7119 29.1952 15.7119ZM42.1617 25.5042H33.5034L35.5242 23.4835H41.4043C41.7081 24.1309 41.9628 24.8059 42.1617 25.5042ZM42.3576 32.0979L32.1622 32.0944L30.3268 30.259H42.6321C42.5827 30.8849 42.4899 31.4987 42.3576 32.0979ZM30.1751 28.8326L32.077 26.9307H42.4837C42.5889 27.5515 42.6525 28.1863 42.6694 28.8326H30.1751ZM28.5292 28.4613L27.1917 27.1238L36.4683 17.8471C37.0056 18.1927 37.5168 18.5756 37.9985 18.9919L28.5292 28.4613ZM26.1831 26.1153L24.7587 24.6909L33.1463 16.3032C33.851 16.5197 34.531 16.7928 35.1816 17.1167L26.1831 26.1153ZM21.4041 21.3362L19.7009 19.6329C21.6048 17.7416 24.0684 16.4132 26.8185 15.9219L21.4041 21.3362ZM33.5891 33.5213L41.9596 33.5242C41.7132 34.2483 41.4069 34.9449 41.0464 35.6081H35.6757L33.5891 33.5213ZM40.6264 22.057H36.9507L39.0271 19.9806C39.6244 20.618 40.1606 21.3133 40.6264 22.057ZM16.1279 32.5013L25.8849 42.2585C21.1074 41.0476 17.3387 37.2789 16.1279 32.5013ZM28.2824 42.6387L15.7478 30.1039C15.7275 29.802 15.7162 29.4979 15.7162 29.1911C15.7162 28.5665 15.7598 27.9521 15.8425 27.3499L31.0365 42.5439C30.4344 42.6266 29.8198 42.6703 29.1953 42.6703C28.8884 42.6703 28.5841 42.659 28.2824 42.6387ZM38.7533 38.6856L37.1022 37.0345H40.1508C39.7291 37.6218 39.2616 38.174 38.7533 38.6856Z" fill="#EBD0C7"/>
</svg>
