<svg width="49" height="53" viewBox="0 0 49 53" fill="none" xmlns="http://www.w3.org/2000/svg">
<path d="M39.566 9.50255L20.3316 0.0772485C20.1214 -0.0257495 19.8767 -0.0257495 19.6666 0.0772485L0.432297 9.50255C0.167962 9.63205 0 9.90378 0 10.2017V33.0916C0 33.3895 0.167962 33.6612 0.432297 33.7907L19.6666 43.2159C19.7716 43.2675 19.8854 43.2931 19.9991 43.2931C20.1129 43.2931 20.2266 43.2674 20.3317 43.2159L27.5226 39.6921C27.903 39.5058 28.0625 39.0418 27.8788 38.6555C27.6952 38.2694 27.2377 38.1075 26.8575 38.294L20.764 41.28V20.1142L24.5551 18.2564C24.9355 18.07 25.095 17.606 24.9114 17.2197C24.7278 16.8336 24.2704 16.6717 23.89 16.8582L19.999 18.7648L2.52413 10.2017L8.35671 7.34363L26.8617 16.4115V23.885C26.8617 24.1522 26.9971 24.4005 27.22 24.5426C27.3438 24.6215 27.485 24.6614 27.6266 24.6614C27.74 24.6614 27.8538 24.6358 27.9592 24.5841L32.6018 22.3091C32.8662 22.1796 33.0341 21.908 33.0341 21.6099V14.1016L38.4686 11.4387V30.6851C38.4686 31.1139 38.8109 31.4615 39.2334 31.4615C39.6559 31.4615 39.9983 31.1139 39.9983 30.6851V10.2017C39.9983 9.90378 39.8303 9.63205 39.566 9.50255ZM19.2343 20.1142V41.28L1.52971 32.6043V11.4386L19.2343 20.1142ZM27.5909 15.0446L10.1486 6.49749L13.4518 4.8724L30.9007 13.4228L27.5909 15.0446ZM31.5044 21.1226L28.3915 22.6481V16.3766L31.5044 14.8512V21.1226ZM32.6552 12.5631C32.6375 12.5525 32.6205 12.5412 32.6018 12.532L15.185 3.99749L19.9991 1.63847L37.4742 10.2017L32.6552 12.5631Z" fill="#EBD0C7"/>
<path d="M7.23247 30.0492L4.40985 28.6661C4.02936 28.4795 3.57218 28.6415 3.38851 29.0277C3.20484 29.4138 3.36434 29.8779 3.74473 30.0644L6.56735 31.4475C6.67454 31.5 6.78784 31.525 6.8993 31.525C7.18362 31.525 7.45673 31.3633 7.58859 31.086C7.77236 30.6998 7.61286 30.2357 7.23247 30.0492Z" fill="#EBD0C7"/>
<path d="M9.83014 27.8137L4.41363 25.1595C4.03304 24.9728 3.57596 25.1349 3.3923 25.521C3.20863 25.9072 3.36813 26.3713 3.74851 26.5578L9.16502 29.212C9.2722 29.2646 9.3855 29.2894 9.49697 29.2894C9.78129 29.2894 10.0544 29.1277 10.1863 28.8504C10.3701 28.4642 10.2105 28.0001 9.83014 27.8137Z" fill="#EBD0C7"/>
<path d="M48.0539 30.0399C47.4428 29.4195 46.6302 29.0779 45.7659 29.0779C44.9016 29.0779 44.0891 29.4195 43.478 30.0399L39.9161 33.6554L28.4284 31.5977C28.0948 31.538 27.7627 31.7078 27.6113 32.0151L26.2137 34.8525C26.0248 35.236 26.178 35.7023 26.5558 35.894L33.9924 39.6683L31.9963 41.6945L28.3318 41.5174C28.1162 41.5077 27.9069 41.5894 27.7546 41.7439L25.6582 43.872C25.4818 44.0511 25.4025 44.3062 25.4458 44.5556C25.4891 44.8051 25.6495 45.0173 25.8756 45.1244L30.8647 47.4877L33.1929 52.5519C33.2985 52.7814 33.5076 52.9443 33.7533 52.9882C33.7977 52.9961 33.8419 53 33.8861 53C34.0872 53 34.2823 52.9194 34.427 52.7726L36.5235 50.6445C36.6759 50.4898 36.7568 50.2771 36.7466 50.0586L36.5721 46.3392L38.5684 44.3128L42.2867 51.8614C42.3775 52.0456 42.5365 52.1856 42.7289 52.2507C42.8077 52.2773 42.8893 52.2906 42.9708 52.2906C43.0884 52.2906 43.2057 52.2631 43.3129 52.2086L46.1081 50.7899C46.4107 50.6363 46.578 50.2989 46.5191 49.9607L44.492 38.3L48.054 34.6845C49.3154 33.4041 49.3154 31.3204 48.0539 30.0399ZM27.9241 34.8524L28.7244 33.2275L38.5959 34.9956L35.1327 38.5109L27.9241 34.8524ZM44.9136 49.6603L43.3129 50.4727L39.7085 43.1556L43.1716 39.6404L44.9136 49.6603ZM46.9721 33.5866L35.2511 45.4841C35.0987 45.6388 35.0178 45.8515 35.0279 46.07L35.2024 49.7895L34.1174 50.891L32.1332 46.5754C32.0574 46.4101 31.9265 46.2773 31.7636 46.2001L27.5121 44.1861L28.597 43.0847L32.2615 43.2619C32.4782 43.2722 32.6864 43.1899 32.8387 43.0354L44.5599 31.1379C44.882 30.8109 45.3104 30.6308 45.766 30.6308C46.2217 30.6308 46.6501 30.8109 46.9722 31.1379C47.6373 31.8129 47.6373 32.9114 46.9721 33.5866Z" fill="#EBD0C7"/>
</svg>
