<svg width="21" height="19" viewBox="0 0 21 19" fill="none" xmlns="http://www.w3.org/2000/svg">
<line x1="2.57227" y1="4.70399" x2="20.5723" y2="18.704" stroke="#6E6E6E" stroke-width="0.75"/>
<line x1="20.4529" y1="4.32325" x2="2.22527" y2="18.0256" stroke="#6E6E6E" stroke-width="0.75"/>
<path d="M20.9961 15.4341L19.3978 1.73583C19.2824 0.746063 18.5369 0 17.6632 0H7.43749C7.19566 0 6.99997 0.223641 6.99997 0.500016C6.99997 0.776391 7.19566 1.00003 7.43749 1.00003H17.6632C18.0999 1.00003 18.4729 1.37306 18.5305 1.86769L19.1295 7.00004H7.43749C3.33638 6.99999 0 10.8129 0 15.5C0 15.7764 0.195686 16 0.437514 16H20.5625C20.6886 16 20.8086 15.938 20.8915 15.8296C20.9748 15.7207 21.0128 15.5766 20.9961 15.4341ZM0.889547 15C1.11554 11.0966 3.96613 7.99998 7.43749 7.99998H19.2462L20.0626 15H0.889547Z" fill="#6E6E6E"/>
</svg>
