<svg width="23" height="16" viewBox="0 0 23 16" fill="none" xmlns="http://www.w3.org/2000/svg">
<path d="M22.2385 10.5374C22.3825 10.2596 22.3828 9.92086 22.2075 9.63324L16.8655 0.871019L14.3994 0H8.60061L6.13453 0.871019L0.792512 9.63324C0.617137 9.92086 0.617406 10.2595 0.761471 10.5374L0 11.7864L2.5362 13.173L3.29727 11.9247C3.36285 11.9206 3.42853 11.9103 3.49344 11.8938C3.75502 11.8274 3.97361 11.6686 4.10896 11.4466L5.98076 8.37625V13.12C5.98076 13.7327 6.34647 14.2657 6.88185 14.5345V16H16.1181V14.5345C16.6534 14.2657 17.0191 13.7327 17.0191 13.12V8.37621L18.891 11.4465C19.0263 11.6686 19.2449 11.8274 19.5065 11.8938C19.5714 11.9103 19.6371 11.9205 19.7026 11.9247L20.4637 13.1731L23 11.7864L22.2385 10.5374ZM13.6132 0.639981H14.2775L14.2944 0.645937C14.262 0.899734 14.1927 1.14171 14.0917 1.36743L13.4988 1.0431C13.5509 0.914453 13.5897 0.779642 13.6132 0.639981ZM13.1602 1.59706L13.7548 1.92228C13.5948 2.12448 13.4052 2.30392 13.1919 2.45532L12.8485 1.89225C12.9628 1.80419 13.0672 1.70524 13.1602 1.59706ZM12.9245 0.639981C12.7715 1.25074 12.1911 1.70665 11.5 1.70665C10.8089 1.70665 10.2285 1.25074 10.0755 0.639981H12.9245ZM12.6063 2.77454C12.3656 2.87119 12.1077 2.93688 11.8379 2.96708V2.3211C11.9854 2.29881 12.1278 2.26206 12.2637 2.21275L12.6063 2.77454ZM11.1621 2.32114V2.96712C10.8923 2.93692 10.6344 2.8712 10.3938 2.77459L10.7364 2.21284C10.8723 2.26214 11.0146 2.2989 11.1621 2.32114ZM10.1514 1.89221L9.80802 2.45528C9.59473 2.30396 9.4052 2.12444 9.24519 1.92224L9.83973 1.59702C9.93277 1.70524 10.0373 1.80419 10.1514 1.89221ZM8.72257 0.639981H9.38688C9.41037 0.779642 9.44918 0.914454 9.50129 1.04314L8.90837 1.36747C8.80734 1.14171 8.73802 0.899734 8.70568 0.645979L8.72257 0.639981ZM2.28886 12.2988L0.923145 11.5522L1.26105 10.9979L2.62672 11.7446L2.28886 12.2988ZM8.27861 15.3599H7.55775V14.72H7.67036H8.27861V15.3599ZM9.72033 15.3599H8.95441V14.72H9.72033V15.3599ZM11.1621 15.3599H10.3962V14.72H11.1621V15.3599ZM12.6038 15.3599H11.8379V14.72H12.6038V15.3599ZM14.0456 15.3599H13.2797V14.72H14.0456V15.3599ZM15.4423 15.3599H14.7214V14.72H15.3297H15.4423V15.3599ZM15.3296 14.0799H7.67036C7.11958 14.0799 6.67022 13.6617 6.65724 13.1429L8.04564 12.4568L9.77262 13.3102L11.4997 12.4568L13.2267 13.3102L14.954 12.4568L16.3427 13.1429C16.3298 13.6617 15.8805 14.0799 15.3296 14.0799ZM16.3434 12.4214L14.954 11.735L13.2268 12.5883L11.4998 11.735L9.77271 12.5883L8.04573 11.735L6.6567 12.4213V11.0099L8.04573 10.3235L9.77271 11.1768L11.4998 10.3235L13.2268 11.1768L14.954 10.3235L16.3434 11.0099V12.4214ZM16.3434 10.2881L14.954 9.60163L13.2268 10.455L11.4998 9.60163L9.77271 10.455L8.04573 9.60163L6.6567 10.288V8.87653L8.04573 8.19014L9.77271 9.04346L11.4998 8.19014L13.2268 9.04346L14.954 8.19014L16.3434 8.87653V10.2881ZM19.6814 11.2757C19.5942 11.2535 19.5214 11.2006 19.4763 11.1265L16.3434 5.98764V8.15478L14.954 7.46835L13.2268 8.32167L11.4998 7.46835L9.77271 8.32167L8.04573 7.46835L6.6567 8.1547V5.98764L3.52372 11.1265C3.47857 11.2005 3.40571 11.2535 3.31851 11.2756C3.23181 11.2976 3.14112 11.2865 3.06318 11.2442L1.50079 10.3899C1.34002 10.3015 1.28481 10.1058 1.37784 9.95323L5.14971 3.76655L6.78761 4.89753L7.18579 4.38041L5.48959 3.20914L6.59848 1.39031L8.05831 0.874678C8.18167 1.56575 8.53336 2.20144 9.07516 2.69725C9.73008 3.2966 10.5913 3.62663 11.5001 3.62663C12.4089 3.62663 13.2701 3.29656 13.925 2.69725C14.4668 2.20144 14.8185 1.56571 14.9419 0.874678L16.4017 1.39031L17.5106 3.20914L15.8213 4.37564L16.2194 4.89277L17.8505 3.76655L21.6223 9.95323C21.7153 10.1058 21.6601 10.3015 21.4994 10.39L19.9373 11.244C19.8592 11.2864 19.7684 11.2976 19.6814 11.2757ZM20.7111 12.2988L20.3733 11.7446L21.739 10.9979L22.0769 11.5522L20.7111 12.2988Z" fill="#6E6E6E"/>
</svg>
