<svg width="15" height="15" viewBox="0 0 15 15" fill="none" xmlns="http://www.w3.org/2000/svg">
<path d="M10.9396 0H4.06036C1.82144 0 0 1.82144 0 4.06036V10.9398C0 13.1786 1.82144 15 4.06036 15H10.9398C13.1786 15 15 13.1786 15 10.9398V4.06036C15 1.82144 13.1786 0 10.9396 0V0ZM7.5 11.6014C5.23842 11.6014 3.39855 9.76158 3.39855 7.5C3.39855 5.23842 5.23842 3.39855 7.5 3.39855C9.76158 3.39855 11.6014 5.23842 11.6014 7.5C11.6014 9.76158 9.76158 11.6014 7.5 11.6014ZM11.6995 4.36581C11.0312 4.36581 10.4876 3.82221 10.4876 3.15388C10.4876 2.48554 11.0312 1.94183 11.6995 1.94183C12.3679 1.94183 12.9116 2.48554 12.9116 3.15388C12.9116 3.82221 12.3679 4.36581 11.6995 4.36581Z" fill="#E3BDB1"/>
<path d="M7.49943 4.27791C5.72285 4.27791 4.27734 5.7233 4.27734 7.49999C4.27734 9.27657 5.72285 10.7221 7.49943 10.7221C9.27612 10.7221 10.7215 9.27657 10.7215 7.49999C10.7215 5.7233 9.27612 4.27791 7.49943 4.27791Z" fill="#E3BDB1"/>
</svg>
