<svg width="13" height="16" viewBox="0 0 13 16" fill="none" xmlns="http://www.w3.org/2000/svg">
<path d="M6.4499 13.8305C6.59825 13.8305 6.71865 13.7093 6.71865 13.5593V4.61017C6.71865 4.4602 6.59825 4.33898 6.4499 4.33898C6.30155 4.33898 6.18115 4.4602 6.18115 4.61017V13.5593C6.18115 13.7093 6.30155 13.8305 6.4499 13.8305Z" fill="#6E6E6E"/>
<path d="M3.7624 13.8305C3.91075 13.8305 4.03115 13.7093 4.03115 13.5593V4.61017C4.03115 4.4602 3.91075 4.33898 3.7624 4.33898C3.61405 4.33898 3.49365 4.4602 3.49365 4.61017V13.5593C3.49365 13.7093 3.61405 13.8305 3.7624 13.8305Z" fill="#6E6E6E"/>
<path d="M9.1374 13.8305C9.28575 13.8305 9.40615 13.7093 9.40615 13.5593V4.61017C9.40615 4.4602 9.28575 4.33898 9.1374 4.33898C8.98905 4.33898 8.86865 4.4602 8.86865 4.61017V13.5593C8.86865 13.7093 8.98905 13.8305 9.1374 13.8305Z" fill="#6E6E6E"/>
<path d="M12.6312 1.62712H8.85693C8.82736 1.28814 8.72389 0.716475 8.36968 0.349559C8.14554 0.117695 7.86121 0 7.52473 0H4.8375C4.50102 0 4.21669 0.117695 3.99255 0.349559C3.63834 0.716475 3.53487 1.28814 3.50531 1.62712H0.26875C0.1204 1.62712 0 1.74834 0 1.89831C0 2.04827 0.1204 2.16949 0.26875 2.16949H0.817269L1.33193 14.6498C1.34187 15.1167 1.62997 16 2.65095 16H10.2491C11.27 16 11.5581 15.1167 11.5678 14.6555L12.0827 2.16949H12.6312C12.7796 2.16949 12.9 2.04827 12.9 1.89831C12.9 1.74834 12.7796 1.62712 12.6312 1.62712ZM4.37847 0.727051C4.49887 0.602847 4.64911 0.542373 4.8375 0.542373H7.52473C7.71312 0.542373 7.86336 0.602847 7.98376 0.727051C8.2001 0.950237 8.28691 1.34292 8.31701 1.62712H4.04549C4.07559 1.34292 4.1624 0.950237 4.37847 0.727051ZM11.0306 14.6384C11.029 14.7222 10.9919 15.4576 10.2491 15.4576H2.65095C1.91619 15.4576 1.87211 14.7208 1.86916 14.6327L1.35504 2.16949H11.5447L11.0306 14.6384Z" fill="#6E6E6E"/>
</svg>
