<svg width="47" height="26" viewBox="0 0 47 26" fill="none" xmlns="http://www.w3.org/2000/svg">
<path d="M11.75 4.33333C11.75 3.536 11.092 2.88889 10.2812 2.88889H1.46875C0.658 2.88889 0 3.536 0 4.33333C0 5.13066 0.658 5.77777 1.46875 5.77777H10.2812C11.092 5.77777 11.75 5.13066 11.75 4.33333Z" fill="#FFD452"/>
<path d="M10.2812 8.66669H4.40625C3.5955 8.66669 2.9375 9.3138 2.9375 10.1111C2.9375 10.9085 3.5955 11.5556 4.40625 11.5556H10.2812C11.092 11.5556 11.75 10.9085 11.75 10.1111C11.75 9.3138 11.092 8.66669 10.2812 8.66669Z" fill="#FFD452"/>
<path d="M10.2812 14.4445H7.34375C6.533 14.4445 5.875 15.0916 5.875 15.8889C5.875 16.6862 6.533 17.3333 7.34375 17.3333H10.2812C11.092 17.3333 11.75 16.6862 11.75 15.8889C11.75 15.0916 11.092 14.4445 10.2812 14.4445Z" fill="#FFD452"/>
<path d="M46.7914 13.702L42.3852 6.47977C42.1208 6.04355 41.642 5.77777 41.125 5.77777H30.8438C30.033 5.77777 29.375 6.42488 29.375 7.22222V21.6667C29.375 22.464 30.033 23.1111 30.8438 23.1111H45.5312C46.342 23.1111 47 22.464 47 21.6667V14.4444C47 14.1815 46.9295 13.9244 46.7914 13.702Z" fill="#F56C62"/>
<path d="M35.25 8.66669H40.2937L43.8187 14.4445H35.25V8.66669Z" fill="#FAFAFA"/>
<path d="M30.8438 0H10.2812C9.4705 0 8.8125 0.647111 8.8125 1.44444V21.6667C8.8125 22.464 9.4705 23.1111 10.2812 23.1111H32.3125V1.44444C32.3125 0.647111 31.6545 0 30.8438 0Z" fill="#FFD452"/>
<path d="M39.6562 24.5555C41.2786 24.5555 42.5938 23.2621 42.5938 21.6667C42.5938 20.0712 41.2786 18.7778 39.6562 18.7778C38.0339 18.7778 36.7188 20.0712 36.7188 21.6667C36.7188 23.2621 38.0339 24.5555 39.6562 24.5555Z" fill="#FAFAFA"/>
<path d="M39.6562 26C37.2269 26 35.25 24.0558 35.25 21.6666C35.25 19.2775 37.2269 17.3333 39.6562 17.3333C42.0856 17.3333 44.0625 19.2775 44.0625 21.6666C44.0625 24.0558 42.0856 26 39.6562 26ZM39.6562 20.2222C38.8484 20.2222 38.1875 20.8722 38.1875 21.6666C38.1875 22.4611 38.8484 23.1111 39.6562 23.1111C40.4641 23.1111 41.125 22.4611 41.125 21.6666C41.125 20.8722 40.4641 20.2222 39.6562 20.2222Z" fill="#455A64"/>
<path d="M32.3125 23.1111H10.2812C9.4705 23.1111 8.8125 22.464 8.8125 21.6666V17.3333H32.3125V23.1111Z" fill="#F56C62"/>
<path d="M19.0938 24.5555C20.7161 24.5555 22.0312 23.2621 22.0312 21.6667C22.0312 20.0712 20.7161 18.7778 19.0938 18.7778C17.4714 18.7778 16.1562 20.0712 16.1562 21.6667C16.1562 23.2621 17.4714 24.5555 19.0938 24.5555Z" fill="#FAFAFA"/>
<path d="M19.0938 26C16.6644 26 14.6875 24.0558 14.6875 21.6666C14.6875 19.2775 16.6644 17.3333 19.0938 17.3333C21.5231 17.3333 23.5 19.2775 23.5 21.6666C23.5 24.0558 21.5231 26 19.0938 26ZM19.0938 20.2222C18.283 20.2222 17.625 20.8722 17.625 21.6666C17.625 22.4611 18.283 23.1111 19.0938 23.1111C19.9045 23.1111 20.5625 22.4611 20.5625 21.6666C20.5625 20.8722 19.9045 20.2222 19.0938 20.2222Z" fill="#455A64"/>
</svg>
