<svg width="23" height="21" viewBox="0 0 23 21" fill="none" xmlns="http://www.w3.org/2000/svg">
<path d="M8.61 5.4C9.27 5.436 9.771 5.616 10.113 5.94C10.461 6.258 10.635 6.675 10.635 7.191C10.635 7.551 10.548 7.872 10.374 8.154C10.2 8.43 9.942 8.649 9.6 8.811C9.258 8.973 8.841 9.054 8.349 9.054C7.893 9.054 7.461 8.982 7.053 8.838C6.651 8.688 6.327 8.49 6.081 8.244L6.396 7.731C6.606 7.947 6.885 8.124 7.233 8.262C7.581 8.394 7.953 8.46 8.349 8.46C8.865 8.46 9.264 8.349 9.546 8.127C9.828 7.899 9.969 7.587 9.969 7.191C9.969 6.801 9.828 6.495 9.546 6.273C9.264 6.051 8.838 5.94 8.268 5.94H7.818V5.463L9.564 3.276H6.342V2.7H10.392V3.159L8.61 5.4ZM14.0591 9.054C13.5731 9.054 13.1381 8.925 12.7541 8.667C12.3761 8.409 12.0791 8.04 11.8631 7.56C11.6531 7.074 11.5481 6.504 11.5481 5.85C11.5481 5.196 11.6531 4.629 11.8631 4.149C12.0791 3.663 12.3761 3.291 12.7541 3.033C13.1381 2.775 13.5731 2.646 14.0591 2.646C14.5451 2.646 14.9771 2.775 15.3551 3.033C15.7391 3.291 16.0391 3.663 16.2551 4.149C16.4711 4.629 16.5791 5.196 16.5791 5.85C16.5791 6.504 16.4711 7.074 16.2551 7.56C16.0391 8.04 15.7391 8.409 15.3551 8.667C14.9771 8.925 14.5451 9.054 14.0591 9.054ZM14.0591 8.46C14.4251 8.46 14.7461 8.358 15.0221 8.154C15.3041 7.95 15.5231 7.653 15.6791 7.263C15.8351 6.873 15.9131 6.402 15.9131 5.85C15.9131 5.298 15.8351 4.827 15.6791 4.437C15.5231 4.047 15.3041 3.75 15.0221 3.546C14.7461 3.342 14.4251 3.24 14.0591 3.24C13.6931 3.24 13.3691 3.342 13.0871 3.546C12.8111 3.75 12.5951 4.047 12.4391 4.437C12.2831 4.827 12.2051 5.298 12.2051 5.85C12.2051 6.402 12.2831 6.873 12.4391 7.263C12.5951 7.653 12.8111 7.95 13.0871 8.154C13.3691 8.358 13.6931 8.46 14.0591 8.46Z" fill="#6E6E6E"/>
<path d="M22.626 6.00539C22.3844 5.96766 22.1584 6.13242 22.1207 6.37316L21.1285 12.707L18.7602 11.9195C17.501 11.5007 16.1142 11.5014 14.8552 11.9218L13.3672 12.4186C12.1859 12.8132 10.8979 12.7775 9.74038 12.3176L9.05213 12.0446C7.79355 11.545 6.38304 11.4742 5.08044 11.8454L1.87947 12.7578L0.879331 6.37316C0.841641 6.13246 0.615549 5.96762 0.374048 6.00539C0.132682 6.04303 -0.0323615 6.26863 0.00537301 6.50938L1.08278 13.3872L2.21688 20.6269C2.25049 20.8417 2.43597 21 2.65388 21H20.3461C20.5641 21 20.7495 20.8417 20.7831 20.6269L22.9946 6.50938C23.0324 6.26863 22.8674 6.04303 22.626 6.00539ZM19.9676 20.1177H3.03244L2.89422 19.2353C2.75599 18.353 2.89422 19.2353 2.75599 18.353L2.01716 13.6363L5.32355 12.6939C6.43915 12.376 7.64719 12.4365 8.72514 12.8644L9.41325 13.1374C10.7648 13.6742 12.2687 13.7161 13.6481 13.2553L15.136 12.7585C16.2142 12.3986 17.4019 12.3979 18.4804 12.7565L20.9899 13.591L19.9676 20.1177Z" fill="#6E6E6E"/>
</svg>
