<svg width="18" height="22" viewBox="0 0 18 22" fill="none" xmlns="http://www.w3.org/2000/svg">
<circle cx="9" cy="11" r="8.625" stroke="#6E6E6E" stroke-width="0.75"/>
<path d="M9.18 7.3C10.1627 7.3 10.9327 7.53467 11.49 8.004C12.0473 8.47333 12.326 9.11867 12.326 9.94C12.326 10.7613 12.0473 11.4067 11.49 11.876C10.9327 12.338 10.1627 12.569 9.18 12.569H7.112V15H6.298V7.3H9.18ZM9.158 11.854C9.92067 11.854 10.5037 11.689 10.907 11.359C11.3103 11.0217 11.512 10.5487 11.512 9.94C11.512 9.31667 11.3103 8.84 10.907 8.51C10.5037 8.17267 9.92067 8.004 9.158 8.004H7.112V11.854H9.158Z" fill="#6E6E6E"/>
</svg>
