<svg width="59" height="61" viewBox="0 0 59 61" fill="none" xmlns="http://www.w3.org/2000/svg">
<g filter="url(#filter0_d)">
<path d="M26.1683 12.1483C27.7322 9.7318 31.2678 9.73181 32.8317 12.1483C33.8523 13.7254 35.8388 14.3709 37.5914 13.6949C40.277 12.6591 43.1375 14.7373 42.9822 17.6115C42.8809 19.4873 44.1087 21.1771 45.9239 21.6604C48.7054 22.4009 49.798 25.7636 47.983 27.9976C46.7985 29.4556 46.7985 31.5444 47.983 33.0024C49.798 35.2364 48.7054 38.5991 45.9239 39.3396C44.1087 39.8229 42.8809 41.5127 42.9822 43.3885C43.1375 46.2627 40.277 48.3409 37.5914 47.3051C35.8388 46.6291 33.8523 47.2746 32.8317 48.8517C31.2678 51.2682 27.7322 51.2682 26.1683 48.8517C25.1477 47.2746 23.1612 46.6291 21.4086 47.3051C18.723 48.3409 15.8625 46.2627 16.0178 43.3885C16.1191 41.5127 14.8914 39.8229 13.0761 39.3396C10.2946 38.5991 9.20198 35.2364 11.017 33.0024C12.2015 31.5444 12.2015 29.4556 11.017 27.9976C9.20198 25.7636 10.2946 22.401 13.0761 21.6604C14.8914 21.1771 16.1191 19.4873 16.0178 17.6115C15.8625 14.7373 18.723 12.6591 21.4086 13.6949C23.1612 14.3709 25.1477 13.7254 26.1683 12.1483Z" fill="#A6B389"/>
</g>
<defs>
<filter id="filter0_d" x="0.125999" y="0.335938" width="58.748" height="60.3281" filterUnits="userSpaceOnUse" color-interpolation-filters="sRGB">
<feFlood flood-opacity="0" result="BackgroundImageFix"/>
<feColorMatrix in="SourceAlpha" type="matrix" values="0 0 0 0 0 0 0 0 0 0 0 0 0 0 0 0 0 0 127 0"/>
<feOffset/>
<feGaussianBlur stdDeviation="5"/>
<feColorMatrix type="matrix" values="0 0 0 0 0 0 0 0 0 0 0 0 0 0 0 0 0 0 0.1 0"/>
<feBlend mode="normal" in2="BackgroundImageFix" result="effect1_dropShadow"/>
<feBlend mode="normal" in="SourceGraphic" in2="effect1_dropShadow" result="shape"/>
</filter>
</defs>
</svg>
