<svg width="26" height="36" viewBox="0 0 26 36" fill="none" xmlns="http://www.w3.org/2000/svg">
<path d="M24.2274 2.32257H14.7727C14.7727 3.28459 13.979 4.0645 13 4.0645C12.021 4.0645 11.2273 3.28459 11.2273 2.32257H1.77272C0.793694 2.32257 0 3.10248 0 4.0645V34.2581C0 35.2201 0.793694 36 1.77272 36H24.2273C25.2063 36 26 35.2201 26 34.2581V4.0645C26.0001 3.10248 25.2064 2.32257 24.2274 2.32257Z" fill="#F0C087"/>
<path d="M23.6362 3.48385H20.0908C19.7644 3.48385 19.4999 3.22384 19.4999 2.90321V2.32257H14.7725C14.7725 3.28459 13.9789 4.0645 12.9998 4.0645C12.0208 4.0645 11.2271 3.28459 11.2271 2.32257H6.49979V2.90321C6.49979 3.22384 6.23525 3.48385 5.90889 3.48385H2.36345C1.71079 3.48385 1.18164 4.00375 1.18164 4.64514V32.5162C1.18164 33.1575 1.71079 33.6774 2.36345 33.6774H23.6362C24.2889 33.6774 24.818 33.1575 24.818 32.5162V4.64521C24.8181 4.00382 24.2889 3.48385 23.6362 3.48385Z" fill="#E6AF78"/>
<path d="M23.0456 32.5162H2.95468C2.62831 32.5162 2.36377 32.2563 2.36377 31.9356V5.22584C2.36377 4.90515 2.62831 4.6452 2.95468 4.6452H23.0456C23.372 4.6452 23.6365 4.90515 23.6365 5.22584V31.9356C23.6365 32.2562 23.3721 32.5162 23.0456 32.5162Z" fill="white"/>
<path d="M17.1361 1.16128H15.0356C14.6263 0.46997 13.8725 0 12.9998 0C12.1271 0 11.3734 0.46997 10.964 1.16128H8.86345C8.21079 1.16128 7.68164 1.68118 7.68164 2.32257V4.64513C7.68164 4.96576 7.94618 5.22578 8.27255 5.22578H17.7271C18.0535 5.22578 18.318 4.96576 18.318 4.64513V2.32257C18.3181 1.68118 17.7889 1.16128 17.1361 1.16128ZM12.9998 3.19353C12.5103 3.19353 12.1134 2.80358 12.1134 2.32257C12.1134 1.84156 12.5103 1.4516 12.9998 1.4516C13.4893 1.4516 13.8862 1.84156 13.8862 2.32257C13.8862 2.80358 13.4894 3.19353 12.9998 3.19353Z" fill="#C7CFE2"/>
<path d="M7.09103 18.8709C7.90691 18.8709 8.5683 18.221 8.5683 17.4193C8.5683 16.6176 7.90691 15.9677 7.09103 15.9677C6.27516 15.9677 5.61377 16.6176 5.61377 17.4193C5.61377 18.221 6.27516 18.8709 7.09103 18.8709Z" fill="#B4E66E"/>
<path d="M7.09055 24.0965C7.90642 24.0965 8.56781 23.4466 8.56781 22.6449C8.56781 21.8432 7.90642 21.1933 7.09055 21.1933C6.27468 21.1933 5.61328 21.8432 5.61328 22.6449C5.61328 23.4466 6.27468 24.0965 7.09055 24.0965Z" fill="#B4E66E"/>
<path d="M7.09055 29.3228C7.90642 29.3228 8.56781 28.6729 8.56781 27.8712C8.56781 27.0695 7.90642 26.4196 7.09055 26.4196C6.27468 26.4196 5.61328 27.0695 5.61328 27.8712C5.61328 28.6729 6.27468 29.3228 7.09055 29.3228Z" fill="#B4E66E"/>
<path d="M15.9545 16.8387H10.6363C10.3097 16.8387 10.0454 16.579 10.0454 16.2581C10.0454 15.9371 10.3097 15.6775 10.6363 15.6775H15.9545C16.2812 15.6775 16.5454 15.9372 16.5454 16.2581C16.5454 16.579 16.2812 16.8387 15.9545 16.8387Z" fill="#AFB9D2"/>
<path d="M20.0909 19.1613H10.6363C10.3097 19.1613 10.0454 18.9016 10.0454 18.5807C10.0454 18.2598 10.3097 18 10.6363 18H20.0909C20.4175 18 20.6818 18.2598 20.6818 18.5807C20.6818 18.9016 20.4175 19.1613 20.0909 19.1613Z" fill="#C7CFE2"/>
<path d="M15.9545 22.0645H10.6363C10.3097 22.0645 10.0454 21.8048 10.0454 21.4839C10.0454 21.1629 10.3097 20.9032 10.6363 20.9032H15.9545C16.2812 20.9032 16.5454 21.163 16.5454 21.4839C16.5454 21.8048 16.2812 22.0645 15.9545 22.0645Z" fill="#AFB9D2"/>
<path d="M20.0909 24.3872H10.6363C10.3097 24.3872 10.0454 24.1274 10.0454 23.8065C10.0454 23.4856 10.3097 23.2259 10.6363 23.2259H20.0909C20.4175 23.2259 20.6818 23.4856 20.6818 23.8065C20.6818 24.1274 20.4175 24.3872 20.0909 24.3872Z" fill="#C7CFE2"/>
<path d="M15.9545 27.2904H10.6363C10.3097 27.2904 10.0454 27.0306 10.0454 26.7097C10.0454 26.3888 10.3097 26.1291 10.6363 26.1291H15.9545C16.2812 26.1291 16.5454 26.3888 16.5454 26.7097C16.5454 27.0306 16.2812 27.2904 15.9545 27.2904Z" fill="#AFB9D2"/>
<path d="M20.0909 29.6129H10.6363C10.3097 29.6129 10.0454 29.3532 10.0454 29.0323C10.0454 28.7114 10.3097 28.4517 10.6363 28.4517H20.0909C20.4175 28.4517 20.6818 28.7114 20.6818 29.0323C20.6818 29.3532 20.4175 29.6129 20.0909 29.6129Z" fill="#C7CFE2"/>
<path d="M19.5 8.12906H10.6363C10.3097 8.12906 10.0454 7.86904 10.0454 7.54842C10.0454 7.22779 10.3097 6.96777 10.6363 6.96777H19.5C19.8266 6.96777 20.0909 7.22779 20.0909 7.54842C20.0909 7.86904 19.8266 8.12906 19.5 8.12906Z" fill="#FF507D"/>
<path d="M20.0911 13.3548H5.90926C5.58261 13.3548 5.31836 13.0951 5.31836 12.7742C5.31836 12.4533 5.58269 12.1935 5.90926 12.1935H20.0911C20.4178 12.1935 20.6821 12.4533 20.6821 12.7742C20.6821 13.0951 20.4178 13.3548 20.0911 13.3548Z" fill="#C7CFE2"/>
<path d="M11.8181 10.4516H10.6363C10.3097 10.4516 10.0454 10.1916 10.0454 9.87099C10.0454 9.55036 10.3097 9.29034 10.6363 9.29034H11.8181C12.1448 9.29034 12.409 9.55036 12.409 9.87099C12.409 10.1916 12.1448 10.4516 11.8181 10.4516Z" fill="#959CB5"/>
<path d="M16.5458 10.4516H14.1822C13.8556 10.4516 13.5913 10.1916 13.5913 9.87099C13.5913 9.55036 13.8556 9.29034 14.1822 9.29034H16.5458C16.8725 9.29034 17.1367 9.55036 17.1367 9.87099C17.1367 10.1916 16.8725 10.4516 16.5458 10.4516Z" fill="#AFB9D2"/>
<path d="M8.27289 10.4516H5.90926C5.5829 10.4516 5.31836 10.1917 5.31836 9.87098V7.54842C5.31836 7.22772 5.5829 6.96777 5.90926 6.96777H8.27289C8.59925 6.96777 8.86379 7.22772 8.86379 7.54842V9.87098C8.86387 10.1917 8.59925 10.4516 8.27289 10.4516Z" fill="#FF507D"/>
<path d="M17.7272 5.22586H8.27255C7.94618 5.22586 7.68164 4.96591 7.68164 4.64522C7.68164 4.32452 7.94618 4.06458 8.27255 4.06458H17.7271C18.0535 4.06458 18.318 4.32452 18.318 4.64522C18.3181 4.96584 18.0535 5.22586 17.7272 5.22586Z" fill="#AFB9D2"/>
<path d="M7.09095 9.58061C7.58047 9.58061 7.97731 9.19067 7.97731 8.70965C7.97731 8.22863 7.58047 7.83868 7.09095 7.83868C6.60143 7.83868 6.20459 8.22863 6.20459 8.70965C6.20459 9.19067 6.60143 9.58061 7.09095 9.58061Z" fill="#FF6991"/>
</svg>
