<svg width="14" height="18" viewBox="0 0 14 18" fill="none" xmlns="http://www.w3.org/2000/svg">
<path d="M0.035387 0.956332C0.113307 0.631663 0.311683 0.357114 0.593983 0.183315C1.17664 -0.175678 1.93962 0.0114617 2.2948 0.600304C2.56568 1.04944 2.52195 1.60442 2.22755 2.00181L7.00002 9.915L11.7725 2.00182C11.4781 1.60437 11.4344 1.04944 11.7053 0.600305C11.8773 0.315055 12.1489 0.114575 12.4702 0.0357815C12.7915 -0.043058 13.1238 0.00937822 13.406 0.18327C13.6883 0.357116 13.8867 0.631665 13.9646 0.956334C14.0426 1.281 13.9907 1.61688 13.8187 1.90213C13.6467 2.18743 13.375 2.38786 13.0537 2.46665C12.9561 2.49056 12.8576 2.50237 12.7596 2.50237C12.6908 2.50237 12.6226 2.49584 12.555 2.48426L7.53671 10.805L11.4513 17.2956C11.5831 17.5141 11.5146 17.7991 11.2985 17.9323C11.224 17.9782 11.1417 18 11.0604 18C10.9058 18 10.7549 17.9209 10.6686 17.7778L7.00007 11.6951L3.33154 17.7778C3.24519 17.921 3.0943 18 2.93974 18C2.85843 18 2.77611 17.9781 2.70163 17.9323C2.48547 17.7991 2.41708 17.5141 2.54881 17.2956L6.46334 10.8051L1.44492 2.48426C1.3774 2.49584 1.3091 2.50237 1.24031 2.50237C1.14245 2.50237 1.04381 2.49056 0.946228 2.46665C0.624967 2.38786 0.353301 2.18743 0.181326 1.90213C0.00926004 1.61688 -0.0425788 1.281 0.035387 0.956332ZM13.036 1.41997C13.0806 1.34599 13.094 1.25891 13.0738 1.17479C13.0536 1.09067 13.0022 1.01942 12.929 0.974353C12.8769 0.942344 12.8194 0.927058 12.7625 0.927058C12.6542 0.927058 12.5484 0.982413 12.488 1.08247C12.3959 1.23514 12.4439 1.43502 12.595 1.52808C12.746 1.62119 12.9439 1.57269 13.036 1.41997ZM0.964103 1.42001C1.0087 1.49394 1.0791 1.54592 1.16243 1.56634C1.24576 1.58668 1.33193 1.57315 1.40504 1.52813C1.55611 1.43507 1.6041 1.23514 1.51202 1.08247C1.41994 0.92979 1.2222 0.881291 1.07104 0.974352C0.997884 1.01942 0.946457 1.09062 0.926243 1.17479C0.90603 1.25895 0.919459 1.34604 0.964103 1.42001Z" fill="#6E6E6E"/>
</svg>
