<svg width="18" height="6" viewBox="0 0 18 6" fill="none" xmlns="http://www.w3.org/2000/svg">
<path d="M17.2652 3.26517C17.4116 3.11872 17.4116 2.88128 17.2652 2.73483L14.8787 0.34835C14.7322 0.201903 14.4948 0.201903 14.3483 0.34835C14.2019 0.494796 14.2019 0.732233 14.3483 0.87868L16.4697 3L14.3483 5.12132C14.2019 5.26777 14.2019 5.5052 14.3483 5.65165C14.4948 5.7981 14.7322 5.7981 14.8787 5.65165L17.2652 3.26517ZM7 3.375L17 3.375V2.625L7 2.625V3.375Z" fill="#6E6E6E"/>
<path d="M0.734835 2.73484C0.588388 2.88128 0.588388 3.11872 0.734835 3.26517L3.12132 5.65165C3.26777 5.7981 3.5052 5.7981 3.65165 5.65165C3.7981 5.5052 3.7981 5.26777 3.65165 5.12132L1.53033 3L3.65165 0.87868C3.7981 0.732234 3.7981 0.494797 3.65165 0.34835C3.5052 0.201904 3.26777 0.201904 3.12132 0.34835L0.734835 2.73484ZM11 2.625L1 2.625L1 3.375L11 3.375L11 2.625Z" fill="#6E6E6E"/>
</svg>
