<svg width="12" height="16" viewBox="0 0 12 16" fill="none" xmlns="http://www.w3.org/2000/svg">
<path d="M5.99975 0C2.69165 0 0 2.64254 0 5.89062C0 6.73784 0.17663 7.54675 0.524719 8.29507C2.02482 11.5178 4.90094 14.9203 5.7469 15.8862C5.81028 15.9584 5.90268 16 5.99992 16C6.09715 16 6.18956 15.9584 6.25294 15.8862C7.09856 14.9204 9.97468 11.5181 11.4753 8.29507C11.8235 7.54675 12 6.73784 12 5.89062C11.9997 2.64254 9.30802 0 5.99975 0ZM5.99975 8.95022C4.28132 8.95022 2.88312 7.57753 2.88312 5.89045C2.88312 4.20321 4.28132 2.83052 5.99975 2.83052C7.71818 2.83052 9.11638 4.20321 9.11638 5.89045C9.11654 7.57753 7.71835 8.95022 5.99975 8.95022Z" fill="#E3BDB1"/>
</svg>
