<svg width="20" height="17" viewBox="0 0 20 17" fill="none" xmlns="http://www.w3.org/2000/svg">
<path d="M19.219 3.38168C18.6981 2.87091 18.0698 2.61546 17.3337 2.61546H15.0003L14.4691 1.22614C14.3371 0.892466 14.0959 0.604662 13.7451 0.362769C13.3943 0.120983 13.035 0 12.6669 0H7.33341C6.96535 0 6.60593 0.120983 6.2552 0.362769C5.90446 0.604662 5.66322 0.892466 5.53125 1.22614L5.00003 2.61546H2.66668C1.93044 2.61546 1.30209 2.87091 0.781188 3.38168C0.260396 3.89248 0 4.50881 0 5.2308V14.3846C0 15.1066 0.260396 15.723 0.781188 16.2337C1.30209 16.7445 1.93048 17 2.66668 17H17.3334C18.0696 17 18.6978 16.7445 19.2188 16.2337C19.7395 15.723 20 15.1066 20 14.3846V5.2308C20.0001 4.50881 19.7397 3.89248 19.219 3.38168ZM13.2969 13.0412C12.3838 13.9369 11.2849 14.3848 10.0001 14.3848C8.71522 14.3848 7.61643 13.9369 6.70316 13.0412C5.7899 12.1457 5.33336 11.0678 5.33336 9.80796C5.33336 8.54775 5.79005 7.47015 6.70316 6.57446C7.61632 5.67877 8.71526 5.23102 10.0001 5.23102C11.2849 5.23102 12.3838 5.67888 13.2969 6.57446C14.2102 7.47004 14.6668 8.54775 14.6668 9.80796C14.6668 11.0678 14.2102 12.1456 13.2969 13.0412Z" fill="#6E6E6E"/>
<path d="M9.99817 6.86545C9.17174 6.86545 8.46512 7.15322 7.87829 7.72882C7.29146 8.30436 6.99805 8.99726 6.99805 9.80796C6.99805 10.6183 7.29146 11.3114 7.87829 11.8869C8.46512 12.4623 9.1717 12.7501 9.99817 12.7501C10.8245 12.7501 11.5312 12.4623 12.118 11.8869C12.7048 11.3114 12.9983 10.6184 12.9983 9.80796C12.9983 8.9973 12.7048 8.30439 12.118 7.72882C11.5312 7.15325 10.8245 6.86545 9.99817 6.86545Z" fill="#6E6E6E"/>
</svg>
