<svg width="27" height="32" viewBox="0 0 27 32" fill="none" xmlns="http://www.w3.org/2000/svg">
<path d="M25.875 13.7931H1.125V0.55175C1.125 0.247062 1.37689 0 1.68753 0H25.3126C25.6232 0 25.8751 0.247062 25.8751 0.55175V13.7931H25.875Z" fill="#FFC36E"/>
<path d="M13.8618 6.73357C13.764 6.66026 13.6015 6.6207 13.4784 6.6207C13.3554 6.6207 13.2356 6.66026 13.1375 6.73357L3.69092 13.7931H5.5471L13.4995 7.85026L21.4519 13.7931H23.308L13.8618 6.73357Z" fill="#F5B464"/>
<path d="M12.1245 8.33663C12.9348 8.95075 14.0657 8.95075 14.8761 8.33663L25.6846 0.1445C25.5851 0.057125 25.4568 0 25.3128 0H1.68779C1.54372 0 1.41545 0.057125 1.31592 0.1445L12.1245 8.33663Z" fill="#FFD782"/>
<path d="M25.875 32H1.12499C0.503649 32 0 31.506 0 30.8965V14.3448C0 13.7354 0.503649 13.2414 1.12499 13.2414H25.875C26.4964 13.2414 27 13.7354 27 14.3448V30.8965C27 31.506 26.4964 32 25.875 32Z" fill="#E4EAF6"/>
<path d="M4.50002 19.3104C5.43201 19.3104 6.18753 18.5693 6.18753 17.6552C6.18753 16.7411 5.43201 16 4.50002 16C3.56803 16 2.8125 16.7411 2.8125 17.6552C2.8125 18.5693 3.56803 19.3104 4.50002 19.3104Z" fill="#FF6E6E"/>
<path d="M6.75002 19.3104C7.68201 19.3104 8.43753 18.5693 8.43753 17.6552C8.43753 16.7411 7.68201 16 6.75002 16C5.81803 16 5.0625 16.7411 5.0625 17.6552C5.0625 18.5693 5.81803 19.3104 6.75002 19.3104Z" fill="white"/>
<path d="M23.625 29.2413H19.125C18.8144 29.2413 18.5625 28.9943 18.5625 28.6896C18.5625 28.3849 18.8144 28.1378 19.125 28.1378H23.625C23.9357 28.1378 24.1876 28.3849 24.1876 28.6896C24.1876 28.9943 23.9357 29.2413 23.625 29.2413Z" fill="#959CB3"/>
<path d="M23.625 27.0345H14.0625C13.7519 27.0345 13.5 26.7874 13.5 26.4827C13.5 26.1781 13.7519 25.931 14.0625 25.931H23.625C23.9357 25.931 24.1876 26.1781 24.1876 26.4827C24.1875 26.7874 23.9357 27.0345 23.625 27.0345Z" fill="#AFB9D2"/>
<path d="M23.6255 24.8276H14.063C13.7524 24.8276 13.5005 24.5805 13.5005 24.2758C13.5005 23.9711 13.7524 23.7241 14.063 23.7241H23.6255C23.9362 23.7241 24.188 23.9711 24.188 24.2758C24.188 24.5805 23.9362 24.8276 23.6255 24.8276Z" fill="#AFB9D2"/>
</svg>
