<svg width="13" height="16" viewBox="0 0 13 16" fill="none" xmlns="http://www.w3.org/2000/svg">
<path d="M12.7292 1.62712H8.92558C8.89579 1.28814 8.79152 0.716475 8.43456 0.349559C8.20869 0.117695 7.92215 0 7.58306 0H4.875C4.53592 0 4.24938 0.117695 4.0235 0.349559C3.66654 0.716475 3.56227 1.28814 3.53248 1.62712H0.270833C0.121333 1.62712 0 1.74834 0 1.89831C0 2.04827 0.121333 2.16949 0.270833 2.16949H0.823604L1.34225 14.6498C1.35227 15.1167 1.6426 16 2.6715 16H10.3285C11.3574 16 11.6477 15.1167 11.6575 14.6555L12.1764 2.16949H12.7292C12.8787 2.16949 13 2.04827 13 1.89831C13 1.74834 12.8787 1.62712 12.7292 1.62712ZM4.0625 13.5593C4.0625 13.7093 3.94117 13.8305 3.79167 13.8305C3.64217 13.8305 3.52083 13.7093 3.52083 13.5593V4.61017C3.52083 4.4602 3.64217 4.33898 3.79167 4.33898C3.94117 4.33898 4.0625 4.4602 4.0625 4.61017V13.5593ZM6.77083 13.5593C6.77083 13.7093 6.6495 13.8305 6.5 13.8305C6.3505 13.8305 6.22917 13.7093 6.22917 13.5593V4.61017C6.22917 4.4602 6.3505 4.33898 6.5 4.33898C6.6495 4.33898 6.77083 4.4602 6.77083 4.61017V13.5593ZM9.47917 13.5593C9.47917 13.7093 9.35783 13.8305 9.20833 13.8305C9.05883 13.8305 8.9375 13.7093 8.9375 13.5593V4.61017C8.9375 4.4602 9.05883 4.33898 9.20833 4.33898C9.35783 4.33898 9.47917 4.4602 9.47917 4.61017V13.5593ZM4.41242 0.727051C4.53375 0.602847 4.68515 0.542373 4.875 0.542373H7.58306C7.77292 0.542373 7.92431 0.602847 8.04565 0.727051C8.26367 0.950237 8.35115 1.34292 8.38148 1.62712H4.07685C4.10719 1.34292 4.19467 0.950237 4.41242 0.727051Z" fill="#E3BDB1"/>
</svg>
