<svg width="91" height="51" viewBox="0 0 91 51" fill="none" xmlns="http://www.w3.org/2000/svg">
<path d="M18.7072 0C17.6259 1.777 6.7771 20.4 2.05552 28.4676C-0.467459 32.7324 -0.575587 37.7436 1.22654 41.9373C1.22654 41.9373 1.22654 41.9373 17.8782 13.4697C20.3652 9.20488 20.5093 4.22927 18.7072 0Z" fill="#E3BDB1"/>
<path d="M29.4117 30.0669L17.1572 51C21.7707 50.4314 26.0958 47.8369 28.5827 43.5366C31.0697 39.2718 31.2138 34.2962 29.4117 30.0669Z" fill="#E3BDB1"/>
<path d="M22.96 22.9233C22.0589 22.3902 21.1218 21.9993 20.1487 21.6794L5.1189 47.3394C5.87579 47.9791 6.70477 48.5833 7.60584 49.1164C8.5069 49.6495 9.44401 50.0404 10.4172 50.3603L25.4469 24.7003C24.69 24.0251 23.861 23.4564 22.96 22.9233Z" fill="#E3BDB1"/>
<path d="M50.38 24.0251V32.9812H38.3778V24.0251H40.4683V31.3108H43.3517V24.0251H45.4422V31.3108H48.2895V24.0251H50.38Z" fill="#6E6E6E"/>
<path d="M59.2104 30.1024H53.9482C54.0563 30.5289 54.2726 30.8488 54.633 31.0976C54.9934 31.3463 55.4259 31.453 55.9666 31.453C56.327 31.453 56.6514 31.4174 56.9397 31.2753C57.2281 31.1686 57.4804 30.9909 57.7327 30.7777L58.8139 31.915C58.1652 32.6613 57.192 33.0167 55.9305 33.0167C55.1376 33.0167 54.4528 32.8746 53.8401 32.5547C53.2273 32.2348 52.7588 31.8439 52.4344 31.3108C52.11 30.7777 51.9298 30.1735 51.9298 29.4983C51.9298 28.823 52.074 28.2188 52.3984 27.6857C52.7227 27.1526 53.1553 26.7261 53.7319 26.4063C54.3086 26.0864 54.9213 25.9442 55.6422 25.9442C56.327 25.9442 56.9397 26.0864 57.4804 26.3707C58.021 26.655 58.4535 27.0815 58.7779 27.6146C59.1023 28.1477 59.2465 28.7875 59.2465 29.4983C59.2465 29.6049 59.2465 29.7826 59.2104 30.1024ZM54.4888 27.8989C54.1645 28.1477 53.9842 28.5031 53.9122 28.9652H57.3362C57.2641 28.5387 57.0839 28.1833 56.7595 27.9345C56.4351 27.6857 56.0747 27.5435 55.6062 27.5435C55.1736 27.508 54.7772 27.6502 54.4888 27.8989Z" fill="#6E6E6E"/>
<path d="M62.1299 32.6258C61.5532 32.3059 61.0846 31.915 60.7242 31.3819C60.3998 30.8488 60.2196 30.2446 60.2196 29.5693C60.2196 28.8941 60.3998 28.2899 60.7242 27.7568C61.0486 27.2237 61.5171 26.7972 62.1299 26.5129C62.7065 26.193 63.3914 26.0509 64.1483 26.0509C64.8691 26.0509 65.5179 26.193 66.0585 26.5129C66.5991 26.8328 66.9956 27.2592 67.2479 27.8279L65.662 28.6453C65.3016 28.0056 64.761 27.6857 64.0762 27.6857C63.5355 27.6857 63.103 27.8634 62.7786 28.1833C62.4182 28.5387 62.274 29.0007 62.274 29.5693C62.274 30.138 62.4542 30.6355 62.7786 30.9554C63.1391 31.3108 63.5716 31.453 64.0762 31.453C64.761 31.453 65.3016 31.1331 65.662 30.4934L67.2479 31.3463C66.9956 31.8794 66.5991 32.3059 66.0585 32.6258C65.5179 32.9456 64.8691 33.0878 64.1483 33.0878C63.3914 33.0878 62.7065 32.9456 62.1299 32.6258Z" fill="#6E6E6E"/>
<path d="M74.3484 27.7568H71.9696V33.0167H69.9512V27.7568H67.5724V26.1219H74.3124V27.7568H74.3484Z" fill="#6E6E6E"/>
<path d="M80.6198 26.7616C81.1964 27.2592 81.4848 28.0411 81.4848 29.0717V33.0167H79.5745V32.1637C79.1781 32.8035 78.4932 33.1233 77.448 33.1233C76.9074 33.1233 76.4388 33.0167 76.0423 32.839C75.6459 32.6613 75.3575 32.4125 75.1413 32.0926C74.925 31.7728 74.8169 31.4174 74.8169 31.0264C74.8169 30.3867 75.0692 29.8892 75.5377 29.5338C76.0423 29.1784 76.7632 29.0007 77.8084 29.0007H79.4303C79.4303 28.5742 79.2862 28.2188 79.0339 28.0055C78.7816 27.7568 78.3491 27.6501 77.8445 27.6501C77.4841 27.6501 77.1236 27.7212 76.7632 27.8278C76.4028 27.9345 76.1144 28.1122 75.8621 28.2899L75.1413 26.9038C75.5377 26.655 75.9703 26.4418 76.5109 26.2996C77.0515 26.1575 77.5922 26.0864 78.1689 26.0864C79.2141 26.0153 80.0431 26.2641 80.6198 26.7616ZM78.8897 31.524C79.142 31.3818 79.3583 31.1331 79.4664 30.8132V30.1024H78.0607C77.2317 30.1024 76.7992 30.3867 76.7992 30.9198C76.7992 31.1686 76.9074 31.3818 77.0876 31.524C77.3038 31.6662 77.5561 31.7372 77.9166 31.7372C78.313 31.7372 78.6014 31.6662 78.8897 31.524Z" fill="#6E6E6E"/>
<path d="M89.4503 26.1219V33.0167H87.6482V31.062H86.1704L84.8369 33.0167H82.6743L84.2602 30.7777C83.7916 30.6 83.3952 30.3157 83.1429 29.9603C82.8906 29.6049 82.7464 29.1784 82.7464 28.6808C82.7464 27.8634 83.0347 27.2592 83.6475 26.7972C84.2241 26.3707 85.0531 26.1219 86.0984 26.1219H89.4503ZM85.1613 27.97C84.945 28.1122 84.8369 28.361 84.8369 28.7164C84.8369 29.0718 84.945 29.3206 85.1613 29.4627C85.3775 29.6049 85.7019 29.7115 86.1344 29.7115H87.6482V27.7568H86.1704C85.7019 27.7213 85.3775 27.8279 85.1613 27.97Z" fill="#6E6E6E"/>
<path d="M50.3801 39.3784V48.3345H38.3779V39.3784H40.4684V46.6286H43.3518V39.3784H45.4423V46.6286H48.2896V39.3784H50.3801Z" fill="#6E6E6E"/>
<path d="M59.2104 45.4558H53.9482C54.0563 45.8822 54.2726 46.2021 54.633 46.4509C54.9934 46.6997 55.4259 46.8063 55.9666 46.8063C56.327 46.8063 56.6514 46.7352 56.9397 46.6286C57.2281 46.522 57.4804 46.3443 57.7327 46.131L58.8139 47.2683C58.1652 48.0146 57.192 48.3701 55.9305 48.3701C55.1376 48.3701 54.4528 48.2279 53.8401 47.908C53.2273 47.5882 52.7588 47.1972 52.4344 46.6641C52.11 46.131 51.9298 45.5268 51.9298 44.8516C51.9298 44.1763 52.074 43.5721 52.3984 43.039C52.7227 42.5059 53.1553 42.0795 53.7319 41.7596C54.3086 41.4397 54.9213 41.2976 55.6422 41.2976C56.327 41.2976 56.9397 41.4397 57.4804 41.7241C58.021 42.0084 58.4535 42.4349 58.7779 42.968C59.1023 43.5011 59.2465 44.1408 59.2465 44.8516C59.2465 44.9582 59.2465 45.1359 59.2104 45.4558ZM54.4888 43.2523C54.1645 43.5011 53.9842 43.8565 53.9122 44.3185H57.3362C57.2641 43.892 57.0839 43.5366 56.7595 43.2878C56.4351 43.039 56.0747 42.8969 55.6062 42.8969C55.1736 42.8613 54.7772 43.0035 54.4888 43.2523Z" fill="#6E6E6E"/>
<path d="M66.7074 41.7951C67.248 42.0795 67.6445 42.5059 67.9689 43.039C68.2572 43.5721 68.4374 44.1763 68.4374 44.8871C68.4374 45.5979 68.2932 46.2021 67.9689 46.7352C67.6805 47.2683 67.248 47.6948 66.7074 47.9791C66.1667 48.2634 65.5901 48.4056 64.9413 48.4056C64.0402 48.4056 63.3554 48.1213 62.8508 47.5882V50.7868H60.7964V41.4042H62.7427V42.1861C63.2473 41.5819 63.9681 41.2976 64.9413 41.2976C65.5901 41.3687 66.1667 41.5108 66.7074 41.7951ZM65.8424 46.3087C66.1667 45.9533 66.3469 45.4913 66.3469 44.9227C66.3469 44.354 66.1667 43.892 65.8424 43.5366C65.518 43.1812 65.0855 43.0035 64.5809 43.0035C64.0763 43.0035 63.6438 43.1812 63.3194 43.5366C62.995 43.892 62.8148 44.354 62.8148 44.9227C62.8148 45.4913 62.995 45.9533 63.3194 46.3087C63.6438 46.6641 64.0763 46.8418 64.5809 46.8418C65.0855 46.8418 65.518 46.6286 65.8424 46.3087Z" fill="#6E6E6E"/>
<path d="M71.1407 47.9791C70.564 47.6592 70.0955 47.2683 69.7351 46.7352C69.3746 46.2021 69.2305 45.5979 69.2305 44.9226C69.2305 44.2474 69.4107 43.6432 69.7351 43.1101C70.0595 42.577 70.528 42.1505 71.1407 41.8662C71.7535 41.5819 72.4022 41.4042 73.1591 41.4042C73.88 41.4042 74.5287 41.5463 75.0694 41.8662C75.61 42.1861 76.0065 42.6125 76.2588 43.1812L74.6729 43.9986C74.3125 43.3589 73.7718 43.039 73.087 43.039C72.5464 43.039 72.1139 43.2167 71.7895 43.5366C71.4291 43.892 71.2849 44.354 71.2849 44.9226C71.2849 45.5268 71.4651 45.9888 71.7895 46.3087C72.1139 46.6286 72.5824 46.8063 73.087 46.8063C73.7718 46.8063 74.3125 46.4864 74.6729 45.8467L76.2588 46.6996C76.0065 47.2327 75.61 47.6592 75.0694 47.9791C74.5287 48.2989 73.88 48.4411 73.1591 48.4411C72.4022 48.4411 71.7174 48.2989 71.1407 47.9791Z" fill="#6E6E6E"/>
<path d="M83.3231 43.1101H80.9803V48.37H78.9619V43.1101H76.5831V41.4753H83.3231V43.1101Z" fill="#6E6E6E"/>
<path d="M90.2792 44.2829C90.7478 44.6739 91.0001 45.2425 91.0001 45.9533C91.0001 46.6996 90.7117 47.3038 90.2071 47.7303C89.6665 48.1568 88.9096 48.37 87.9364 48.37H84.4403V41.4753H86.4587V43.6787H88.2248C89.0898 43.6787 89.8106 43.892 90.2792 44.2829ZM88.6212 46.6996C88.8375 46.5219 88.9456 46.2732 88.9456 45.9178C88.9456 45.5979 88.8375 45.3491 88.6573 45.1714C88.441 45.0293 88.1527 44.9226 87.7562 44.9226H86.4587V46.9129H87.7562C88.1167 46.9484 88.405 46.8773 88.6212 46.6996Z" fill="#6E6E6E"/>
</svg>
