<svg width="14" height="17" viewBox="0 0 14 17" fill="none" xmlns="http://www.w3.org/2000/svg">
<path d="M9.92033 9.97366L9.87725 9.95402C9.77436 9.9068 9.67074 9.86227 9.56509 9.82057C9.44987 9.774 9.33294 9.73091 9.21431 9.69056C9.12064 9.65955 9.02627 9.63057 8.93089 9.60229C8.78561 9.55991 8.63889 9.52159 8.48782 9.48779C8.43653 9.47711 8.38424 9.46675 8.33227 9.45742L8.29673 9.4505C8.20753 9.4329 8.11794 9.41739 8.02735 9.40392L8.00139 9.39979C8.00038 9.39979 7.99969 9.39909 7.99868 9.39909L7.97272 9.39566C7.8975 9.38428 7.82265 9.3736 7.74467 9.36464L7.47938 9.34259C7.15323 9.32086 6.81714 9.32156 6.49477 9.34533L6.40077 9.35327L6.35699 9.3567L6.24725 9.36668C6.14639 9.37736 6.04622 9.39153 5.94605 9.40773L5.91663 9.41186C5.84828 9.42324 5.77987 9.43601 5.71252 9.44878C5.63767 9.46225 5.56378 9.47706 5.48995 9.49326C5.34706 9.52567 5.20514 9.56259 5.06773 9.60294C4.95831 9.63465 4.85032 9.66947 4.74877 9.70467L4.67833 9.73022C4.46294 9.80711 4.24894 9.89537 4.04174 9.99228L3.98636 10.0188L3.98535 10.0202C1.56242 11.19 0 13.6822 0 16.3865C0 16.4486 0.00409614 16.5096 0.00787307 16.571L0.0260129 17H13.9733L13.9921 16.5758C13.9962 16.5131 14 16.4507 14 16.3865C14 13.6391 12.3996 11.1248 9.92033 9.97366ZM0.683996 16.3103C0.713413 13.8822 2.13668 11.6548 4.30591 10.6289L4.37565 10.6013L4.38384 10.5934C4.55375 10.5151 4.72914 10.4437 4.90692 10.3806L4.96331 10.3603C5.06007 10.3265 5.15646 10.2954 5.25663 10.2668C5.38143 10.2299 5.50862 10.1968 5.63613 10.1678C5.70209 10.1537 5.76811 10.1403 5.83615 10.1275C5.89014 10.1175 5.94382 10.1072 5.99818 10.0985L6.02483 10.0937C6.12261 10.0782 6.22076 10.064 6.31853 10.0533L6.54211 10.0337C6.83475 10.012 7.11477 10.0089 7.4539 10.0337L7.67131 10.052C7.72498 10.0582 7.77866 10.0655 7.84398 10.0748L7.92229 10.0861C8.004 10.0982 8.08571 10.1123 8.16773 10.1279L8.20604 10.1351C8.25221 10.1438 8.29801 10.1527 8.34142 10.162C8.47611 10.1917 8.60841 10.2268 8.7397 10.2651C8.82652 10.2907 8.91269 10.3169 8.9968 10.3451C9.10345 10.381 9.20878 10.42 9.31305 10.4617C9.41322 10.5013 9.512 10.5438 9.60978 10.589L9.62685 10.5969C11.8453 11.6235 13.286 13.8582 13.3154 16.3097H0.683996V16.3103ZM5.31004 8.45632C5.36132 8.47805 5.4143 8.497 5.46729 8.51599L5.57841 8.55666C5.62113 8.57319 5.66422 8.58945 5.708 8.60324C6.11553 8.73255 6.54185 8.79909 6.97534 8.80258L7.00987 8.80328C7.1586 8.80328 7.30766 8.79533 7.45054 8.78052C7.49975 8.77569 7.54763 8.76775 7.59582 8.75949L7.70285 8.74329C7.76302 8.73534 7.82318 8.72638 7.88611 8.71399C7.9292 8.70503 7.97091 8.69365 8.01261 8.68228L8.12954 8.65228C8.18731 8.63817 8.24508 8.624 8.30221 8.60608C8.33775 8.59471 8.37265 8.58161 8.40717 8.56847L8.50117 8.53434C8.5682 8.51089 8.63586 8.48675 8.70358 8.45815C8.72991 8.44677 8.75555 8.43438 8.78082 8.42193L8.81125 8.40674C8.90392 8.365 8.99621 8.32223 9.08782 8.2726L9.14729 8.23676C9.24985 8.17811 9.35209 8.11742 9.45567 8.04605C9.50934 8.00951 9.56062 7.96847 9.61121 7.92779L9.78628 7.79054C10.7928 6.95015 11.3713 5.71693 11.3713 4.43788L11.3733 4.40134C11.3733 1.97429 9.41572 0 7.00955 0C4.7128 0 2.802 1.81149 2.65943 4.12409L2.65566 4.18134C2.65018 4.25411 2.64576 4.32687 2.64576 4.40134C2.64507 6.17409 3.69091 7.76558 5.31004 8.45632ZM3.33737 4.22915L3.34146 4.16707C3.46179 2.21693 5.07273 0.689611 7.00918 0.689611C9.03861 0.689611 10.6892 2.35456 10.6909 4.36985L10.6889 4.40606C10.6875 5.51029 10.1993 6.55002 9.34629 7.26421L9.18389 7.38907C9.14766 7.41874 9.11106 7.44836 9.06558 7.48013C8.98355 7.53636 8.89668 7.58701 8.80848 7.6374L8.75959 7.66739C8.68576 7.70742 8.60815 7.74289 8.52745 7.77911L8.43685 7.82327C8.38488 7.845 8.3302 7.86394 8.27615 7.88293L8.16332 7.92398C8.14146 7.93225 8.11922 7.94121 8.09768 7.94775C8.05565 7.96085 8.01256 7.97088 7.96979 7.98156L7.8334 8.01676C7.80398 8.0247 7.77493 8.03296 7.74897 8.03849C7.70349 8.04745 7.657 8.05367 7.61088 8.06022L7.48097 8.07986C7.44953 8.08539 7.41804 8.09091 7.38282 8.09435C7.26899 8.10642 7.15445 8.11297 7.03822 8.11399L7.00609 8.11366H7.0054C6.63106 8.11334 6.26353 8.05711 5.91206 7.94609C5.88163 7.93643 5.85189 7.92436 5.82216 7.91298L5.69364 7.86576C5.65363 7.8516 5.614 7.83781 5.5757 7.8216C4.2109 7.23936 3.3288 5.89647 3.3288 4.40156C3.3288 4.34328 3.33327 4.28603 3.33737 4.22915Z" fill="#A0A0A0"/>
</svg>
